{
  "accessors": [
    {
      "bufferView": 2,
      "componentType": 5126,
      "count": 8,
      "max": [
        -1.7246999740600586,
        -46.64899826049805,
        9.461600303649902
      ],
      "min": [
        -4.850399971008301,
        -49.85329818725586,
        8.113699913024902
      ],
      "type": "VEC3"
    },
    {
      "bufferView": 2,
      "byteOffset": 96,
      "componentType": 5126,
      "count": 8,
      "max": [
        0.4349208176136017,
        0.0038000771310180426,
        0.0996047779917717
      ],
      "min": [
        -0.9950201511383057,
        -0.8949428796768188,
        0.09960202127695084
      ],
      "type": "VEC3"
    },
    {
      "bufferView": 1,
      "componentType": 5126,
      "count": 8,
      "max": [
        0.5965999960899353,
        0.8047000169754028
      ],
      "min": [
        0.2833000123500824,
        0.5645999908447266
      ],
      "type": "VEC2"
    },
    {
      "bufferView": 0,
      "componentType": 5125,
      "count": 12,
      "type": "SCALAR"
    },
    {
      "bufferView": 2,
      "byteOffset": 192,
      "componentType": 5126,
      "count": 44,
      "max": [
        -4.2743000984191895,
        -50.065101623535156,
        8.186200141906738
      ],
      "min": [
        -6.37060022354126,
        -52.20920181274414,
        6.597700119018555
      ],
      "type": "VEC3"
    },
    {
      "bufferView": 2,
      "byteOffset": 720,
      "componentType": 5126,
      "count": 44,
      "max": [
        0.6149761080741882,
        0.2576920986175537,
        0.9109245538711548
      ],
      "min": [
        -0.966696560382843,
        -0.8062172532081604,
        -0.8081327676773071
      ],
      "type": "VEC3"
    },
    {
      "bufferView": 1,
      "byteOffset": 64,
      "componentType": 5126,
      "count": 44,
      "max": [
        0.5508000254631042,
        0.15710000693798065
      ],
      "min": [
        0.5231999754905701,
        0.1331000030040741
      ],
      "type": "VEC2"
    },
    {
      "bufferView": 0,
      "byteOffset": 48,
      "componentType": 5125,
      "count": 60,
      "type": "SCALAR"
    },
    {
      "bufferView": 2,
      "byteOffset": 1248,
      "componentType": 5126,
      "count": 3356,
      "max": [
        19.92180061340332,
        8.877400398254395,
        53.43949890136719
      ],
      "min": [
        -36.62139892578125,
        -51.36869812011719,
        0.018400000408291817
      ],
      "type": "VEC3"
    },
    {
      "bufferView": 2,
      "byteOffset": 41520,
      "componentType": 5126,
      "count": 3356,
      "max": [
        0.9950567483901978,
        0.9999556541442871,
        0.999625027179718
      ],
      "min": [
        -0.9990062117576599,
        -0.9999499320983887,
        -1.0
      ],
      "type": "VEC3"
    },
    {
      "bufferView": 1,
      "byteOffset": 416,
      "componentType": 5126,
      "count": 3356,
      "max": [
        0.988099992275238,
        0.9639999866485596
      ],
      "min": [
        0.02199999988079071,
        0.03400000184774399
      ],
      "type": "VEC2"
    },
    {
      "bufferView": 0,
      "byteOffset": 288,
      "componentType": 5125,
      "count": 4902,
      "type": "SCALAR"
    }
  ],
  "asset": {
    "extras": {
      "author": "Nephlim (https://sketchfab.com/bennyd006)",
      "license": "CC-BY-4.0 (http://creativecommons.org/licenses/by/4.0/)",
      "source": "https://sketchfab.com/3d-models/jon-snow-2e94632116d442d7ab8882b6d493e74f",
      "title": "Jon Snow"
    },
    "generator": "Sketchfab-12.65.0",
    "version": "2.0"
  },
  "bufferViews": [
    {
      "buffer": 0,
      "byteLength": 19896,
      "name": "floatBufferViews",
      "target": 34963
    },
    {
      "buffer": 0,
      "byteLength": 27264,
      "byteOffset": 19896,
      "byteStride": 8,
      "name": "floatBufferViews",
      "target": 34962
    },
    {
      "buffer": 0,
      "byteLength": 81792,
      "byteOffset": 47160,
      "byteStride": 12,
      "name": "floatBufferViews",
      "target": 34962
    }
  ],
  "buffers": [
    {
      "byteLength": 128952,
      "uri": "scene.bin"
    }
  ],
  "images": [
    {
      "uri": "textures/22___Default_baseColor.jpeg"
    }
  ],
  "materials": [
    {
      "doubleSided": true,
      "emissiveFactor": [
        0.1898385501052481,
        0.005390015114757001,
        0.005390015114757001
      ],
      "name": "20___Default",
      "pbrMetallicRoughness": {
        "baseColorFactor": [
          0.7494345424331751,
          0.00090467989546,
          0.00090467989546,
          1.0
        ],
        "metallicFactor": 0.0,
        "roughnessFactor": 0.6
      }
    },
    {
      "doubleSided": true,
      "name": "21___Default",
      "pbrMetallicRoughness": {
        "baseColorFactor": [
          0.011011230500289002,
          0.011011230500289002,
          0.011011230500289002,
          1.0
        ],
        "metallicFactor": 0.0,
        "roughnessFactor": 0.6
      }
    },
    {
      "doubleSided": true,
      "emissiveFactor": [
        0.4,
        0.4,
        0.4
      ],
      "emissiveTexture": {
        "index": 0
      },
      "name": "22___Default",
      "pbrMetallicRoughness": {
        "baseColorTexture": {
          "index": 0
        },
        "metallicFactor": 0.0,
        "roughnessFactor": 0.6
      }
    }
  ],
  "meshes": [
    {
      "name": "Object_0",
      "primitives": [
        {
          "attributes": {
            "NORMAL": 1,
            "POSITION": 0,
            "TEXCOORD_0": 2
          },
          "indices": 3,
          "material": 0,
          "mode": 4
        }
      ]
    },
    {
      "name": "Object_1",
      "primitives": [
        {
          "attributes": {
            "NORMAL": 5,
            "POSITION": 4,
            "TEXCOORD_0": 6
          },
          "indices": 7,
          "material": 1,
          "mode": 4
        }
      ]
    },
    {
      "name": "Object_2",
      "primitives": [
        {
          "attributes": {
            "NORMAL": 9,
            "POSITION": 8,
            "TEXCOORD_0": 10
          },
          "indices": 11,
          "material": 2,
          "mode": 4
        }
      ]
    }
  ],
  "nodes": [
    {
      "children": [
        1
      ],
      "matrix": [
        1.0,
        0.0,
        0.0,
        0.0,
        0.0,
        2.220446049250313e-16,
        -1.0,
        0.0,
        0.0,
        1.0,
        2.220446049250313e-16,
        0.0,
        0.0,
        0.0,
        0.0,
        1.0
      ],
      "name": "Sketchfab_model"
    },
    {
      "children": [
        2,
        3,
        4
      ],
      "name": "f22d697b9812496e88fca2a16c022592.obj.cleaner"
    },
    {
      "mesh": 0,
      "name": "Object_2"
    },
    {
      "mesh": 1,
      "name": "Object_3"
    },
    {
      "mesh": 2,
      "name": "Object_4"
    }
  ],
  "samplers": [
    {
      "magFilter": 9729,
      "minFilter": 9987,
      "wrapS": 10497,
      "wrapT": 10497
    }
  ],
  "scene": 0,
  "scenes": [
    {
      "name": "Sketchfab_Scene",
      "nodes": [
        0
      ]
    }
  ],
  "textures": [
    {
      "sampler": 0,
      "source": 0
    }
  ]
}
