{
  "accessors": [
    {
      "bufferView": 2,
      "componentType": 5126,
      "count": 13709,
      "max": [
        1110.6502685546875,
        1480.5770263671875,
        899.2592163085938
      ],
      "min": [
        -950.1865234375,
        -1.7004363536834717,
        -1062.1060791015625
      ],
      "type": "VEC3"
    },
    {
      "bufferView": 2,
      "byteOffset": 164508,
      "componentType": 5126,
      "count": 13709,
      "max": [
        0.9999653100967407,
        0.9995309114456177,
        0.9996260404586792
      ],
      "min": [
        -0.999468982219696,
        -0.9991920590400696,
        -0.9999867677688599
      ],
      "type": "VEC3"
    },
    {
      "bufferView": 1,
      "componentType": 5126,
      "count": 13709,
      "max": [
        -0.0014600000577047467,
        15.923529624938965
      ],
      "min": [
        -0.9995099902153015,
        0.0
      ],
      "type": "VEC2"
    },
    {
      "bufferView": 1,
      "byteOffset": 109672,
      "componentType": 5126,
      "count": 13709,
      "max": [
        0.999634325504303,
        0.999545156955719
      ],
      "min": [
        0.0007201453554444015,
        0.0007201453554444015
      ],
      "type": "VEC2"
    },
    {
      "bufferView": 0,
      "componentType": 5125,
      "count": 40776,
      "type": "SCALAR"
    },
    {
      "bufferView": 2,
      "byteOffset": 329016,
      "componentType": 5126,
      "count": 14912,
      "max": [
        1311.9755859375,
        1686.1270751953125,
        1086.1475830078125
      ],
      "min": [
        -1153.237060546875,
        212.04690551757813,
        -1238.6585693359375
      ],
      "type": "VEC3"
    },
    {
      "bufferView": 2,
      "byteOffset": 507960,
      "componentType": 5126,
      "count": 14912,
      "max": [
        0.9999130964279175,
        0.9999945163726807,
        0.9998935461044312
      ],
      "min": [
        -0.9995861649513245,
        -0.9999945163726807,
        -0.999942421913147
      ],
      "type": "VEC3"
    },
    {
      "bufferView": 1,
      "byteOffset": 219344,
      "componentType": 5126,
      "count": 14912,
      "max": [
        1.000100016593933,
        -0.0
      ],
      "min": [
        9.999999747378752e-05,
        -1.0
      ],
      "type": "VEC2"
    },
    {
      "bufferView": 1,
      "byteOffset": 338640,
      "componentType": 5126,
      "count": 14912,
      "max": [
        0.9996199607849121,
        0.9996389150619507
      ],
      "min": [
        0.05486762896180153,
        0.011635438539087772
      ],
      "type": "VEC2"
    },
    {
      "bufferView": 0,
      "byteOffset": 163104,
      "componentType": 5125,
      "count": 22368,
      "type": "SCALAR"
    }
  ],
  "asset": {
    "extras": {
      "author": "fadiyasotodeh (https://sketchfab.com/fadiyasotodeh)",
      "license": "CC-BY-4.0 (http://creativecommons.org/licenses/by/4.0/)",
      "source": "https://sketchfab.com/3d-models/realistic-tree-models-for-games-b27168d5dbee4abe878d46aa045d1ddc",
      "title": "Realistic Tree Models For Games"
    },
    "generator": "Sketchfab-15.44.0",
    "version": "2.0"
  },
  "bufferViews": [
    {
      "buffer": 0,
      "byteLength": 252576,
      "name": "floatBufferViews",
      "target": 34963
    },
    {
      "buffer": 0,
      "byteLength": 457936,
      "byteOffset": 252576,
      "byteStride": 8,
      "name": "floatBufferViews",
      "target": 34962
    },
    {
      "buffer": 0,
      "byteLength": 686904,
      "byteOffset": 710512,
      "byteStride": 12,
      "name": "floatBufferViews",
      "target": 34962
    }
  ],
  "buffers": [
    {
      "byteLength": 1397416,
      "uri": "scene.bin"
    }
  ],
  "extensionsUsed": [
    "KHR_materials_specular"
  ],
  "images": [
    {
      "uri": "textures/Euro_Beech_Bark_baseColor.png"
    },
    {
      "uri": "textures/Euro_Beech_Bark_specularf0.png"
    },
    {
      "uri": "textures/Euro_Beech_Leaf_baseColor.png"
    }
  ],
  "materials": [
    {
      "doubleSided": true,
      "extensions": {
        "KHR_materials_specular": {
          "specularColorFactor": [
            1.0,
            1.0,
            1.0
          ],
          "specularFactor": 0.0,
          "specularTexture": {
            "index": 1,
            "texCoord": 1
          }
        }
      },
      "name": "Euro_Beech_Bark",
      "pbrMetallicRoughness": {
        "baseColorTexture": {
          "index": 0
        },
        "metallicFactor": 0.0,
        "roughnessFactor": 0.6
      }
    },
    {
      "alphaCutoff": 0.302,
      "alphaMode": "MASK",
      "doubleSided": true,
      "extensions": {
        "KHR_materials_specular": {
          "specularColorFactor": [
            1.0,
            1.0,
            1.0
          ],
          "specularFactor": 0.0
        }
      },
      "name": "Euro_Beech_Leaf",
      "pbrMetallicRoughness": {
        "baseColorTexture": {
          "index": 2
        },
        "metallicFactor": 0.0,
        "roughnessFactor": 0.6
      }
    }
  ],
  "meshes": [
    {
      "name": "Euro_Beech_7_Euro_Beech_Bark_0",
      "primitives": [
        {
          "attributes": {
            "NORMAL": 1,
            "POSITION": 0,
            "TEXCOORD_0": 2,
            "TEXCOORD_1": 3
          },
          "indices": 4,
          "material": 0,
          "mode": 4
        }
      ]
    },
    {
      "name": "Euro_Beech_7_Euro_Beech_Leaf_0",
      "primitives": [
        {
          "attributes": {
            "NORMAL": 6,
            "POSITION": 5,
            "TEXCOORD_0": 7,
            "TEXCOORD_1": 8
          },
          "indices": 9,
          "material": 1,
          "mode": 4
        }
      ]
    }
  ],
  "nodes": [
    {
      "children": [
        1
      ],
      "matrix": [
        1.0,
        0.0,
        0.0,
        0.0,
        0.0,
        2.220446049250313e-16,
        -1.0,
        0.0,
        0.0,
        1.0,
        2.220446049250313e-16,
        0.0,
        0.0,
        0.0,
        0.0,
        1.0
      ],
      "name": "Sketchfab_model"
    },
    {
      "children": [
        2
      ],
      "matrix": [
        0.009999999776482582,
        0.0,
        0.0,
        0.0,
        0.0,
        0.0,
        0.009999999776482582,
        0.0,
        0.0,
        -0.009999999776482582,
        0.0,
        0.0,
        0.0,
        0.0,
        0.0,
        1.0
      ],
      "name": "GameObject.fbx"
    },
    {
      "children": [
        3
      ],
      "name": "RootNode"
    },
    {
      "children": [
        4
      ],
      "name": "GameObject"
    },
    {
      "children": [
        5,
        6
      ],
      "name": "Euro_Beech_7"
    },
    {
      "mesh": 0,
      "name": "Euro_Beech_7_Euro_Beech_Bark_0"
    },
    {
      "mesh": 1,
      "name": "Euro_Beech_7_Euro_Beech_Leaf_0"
    }
  ],
  "samplers": [
    {
      "magFilter": 9729,
      "minFilter": 9987,
      "wrapS": 10497,
      "wrapT": 10497
    }
  ],
  "scene": 0,
  "scenes": [
    {
      "name": "Sketchfab_Scene",
      "nodes": [
        0
      ]
    }
  ],
  "textures": [
    {
      "sampler": 0,
      "source": 0
    },
    {
      "sampler": 0,
      "source": 1
    },
    {
      "sampler": 0,
      "source": 2
    }
  ]
}
